<svg xmlns="http://www.w3.org/2000/svg" version="1.1" xmlns:xlink="http://www.w3.org/1999/xlink" xmlns:svgjs="http://svgjs.com/svgjs" width="1440" height="980" preserveAspectRatio="none" viewBox="0 0 1440 980">
    <g mask="url(&quot;#SvgjsMask7651&quot;)" fill="none">
        <rect width="1440" height="980" x="0" y="0" fill="url(#SvgjsRadialGradient7652)"></rect>
        <path d="M -279.9506913093879,350 C -183.95,425.4 8.05,725.8 200.04930869061212,727 C 392.05,728.2 488.05,368.6 680.0493086906122,356 C 872.05,343.4 968.05,651.6 1160.0493086906122,664 C 1352.05,676.4 1584.06,403.6 1640.0493086906122,418 C 1696.04,432.4 1480.01,672.4 1440,736" stroke="rgba(189, 158, 87, 1)" stroke-width="2"></path>
        <path d="M -807.5966416204021,192 C -711.6,267.2 -519.6,535.8 -327.59664162040207,568 C -135.6,600.2 -39.6,331 152.40335837959793,353 C 344.4,375 440.4,669.8 632.4033583795979,678 C 824.4,686.2 950.88,395.4 1112.4033583795979,394 C 1273.92,392.6 1374.48,615.6 1440,671" stroke="rgba(189, 158, 87, 1)" stroke-width="2"></path>
        <path d="M -239.22754542889012,192 C -143.23,272.4 48.77,588.8 240.77245457110988,594 C 432.77,599.2 528.77,206.6 720.7724545711098,218 C 912.77,229.4 1008.77,653.2 1200.7724545711098,651 C 1392.77,648.8 1632.93,217 1680.7724545711098,207 C 1728.62,197 1488.15,522.2 1440,601" stroke="rgba(189, 158, 87, 1)" stroke-width="2"></path>
        <path d="M -715.7791315697016,422 C -619.78,456.6 -427.78,608.2 -235.77913156970163,595 C -43.78,581.8 52.22,350.8 244.22086843029837,356 C 436.22,361.2 532.22,638.8 724.2208684302984,621 C 916.22,603.2 1061.07,234.6 1204.2208684302984,267 C 1347.38,299.4 1392.84,679.8 1440,783" stroke="rgba(189, 158, 87, 1)" stroke-width="2"></path>
        <path d="M -592.6875918816936,708 C -496.69,603 -304.69,164.8 -112.68759188169366,183 C 79.31,201.2 175.31,753.6 367.31240811830634,799 C 559.31,844.4 655.31,443.6 847.3124081183064,410 C 1039.31,376.4 1208.77,643.4 1327.3124081183064,631 C 1445.85,618.6 1417.46,404.6 1440,348" stroke="rgba(189, 158, 87, 1)" stroke-width="2"></path>
        <path d="M -906.1487873034255,355 C -810.15,426.8 -618.15,742.2 -426.14878730342554,714 C -234.15,685.8 -138.15,236.4 53.851212696574464,214 C 245.85,191.6 341.85,547.2 533.8512126965745,602 C 725.85,656.8 832.62,505 1013.8512126965745,488 C 1195.08,471 1354.77,511.2 1440,517" stroke="rgba(189, 158, 87, 1)" stroke-width="2"></path>
    </g>
    <defs>
        <mask id="SvgjsMask7651">
            <rect width="1440" height="980" fill="#ffffff"></rect>
        </mask>
        <radialGradient cx="100%" cy="50%" r="1521.09" gradientUnits="userSpaceOnUse" id="SvgjsRadialGradient7652">
            <stop stop-color="rgba(11, 14, 87, 1)" offset="0"></stop>
            <stop stop-color="#01010f" offset="0.61"></stop>
        </radialGradient>
    </defs>
</svg>