<svg width="680" height="680" viewBox="0 0 684 680" fill="none" xmlns="http://www.w3.org/2000/svg">
<path d="M355.25 381.2V245.7L296.75 349.95H283L224.25 245.7V381.2H201.75V203.7H225.5L289.75 318.95L354.25 203.7H377.75V381.2H355.25Z" fill="#eba937"/>
<path d="M506.974 351.269C506.974 361.536 504.361 370.496 499.134 378.149C493.908 385.802 486.814 391.776 477.854 396.069C469.081 400.362 459.374 402.509 448.734 402.509H354.374V203.709H453.214C462.548 203.709 470.574 206.229 477.294 211.269C484.201 216.122 489.428 222.469 492.974 230.309C496.708 237.962 498.574 245.989 498.574 254.389C498.574 264.096 496.054 273.242 491.014 281.829C486.161 290.229 479.161 296.482 470.014 300.589C481.401 303.949 490.361 310.202 496.894 319.349C503.614 328.309 506.974 338.949 506.974 351.269ZM481.494 346.789C481.494 340.629 480.094 334.936 477.294 329.709C474.681 324.482 471.041 320.282 466.374 317.109C461.894 313.936 456.668 312.349 450.694 312.349H379.574V380.669H448.734C454.894 380.669 460.401 379.082 465.254 375.909C470.294 372.736 474.214 368.629 477.014 363.589C480.001 358.362 481.494 352.762 481.494 346.789ZM379.574 225.549V291.909H442.854C448.828 291.909 454.054 290.416 458.534 287.429C463.201 284.442 466.841 280.429 469.454 275.389C472.254 270.349 473.654 264.842 473.654 258.869C473.654 252.522 472.348 246.922 469.734 242.069C467.308 237.029 463.854 233.016 459.374 230.029C455.081 227.042 450.134 225.549 444.534 225.549H379.574Z" fill="#eba937"/>
<path d="M284.035 573.3V380.89H411.134V402.57H308.425V466.797H394.874V487.122H308.425V573.3H284.035Z" fill="#eba937"/>
<path d="M216.487 126.412L210.717 126.412L207.832 131.387L82.8317 346.939L79.937 351.931L82.8366 356.931L207.837 572.482L210.736 577.482L216.526 577.482L466.526 577.482L472.296 577.482L475.181 572.507L600.181 356.955L603.076 351.964L600.176 346.964L475.176 131.412L472.277 126.412L466.487 126.412L216.487 126.412Z" stroke="#eba937" stroke-width="20"/>
</svg>
