<svg width="600" height="600" viewBox="0 0 684 684" fill="none" xmlns="http://www.w3.org/2000/svg">
<path d="M352.25 382V265.5L306.75 352.25H287.5L242 265.5V382H207.5V204.5H244.5L297 305.5L350 204.5H386.75V382H352.25Z" fill="#bd9e57"/>
<path d="M510.224 352.06C510.224 363.26 507.33 372.687 501.544 380.34C495.757 387.807 487.917 393.5 478.024 397.42C468.317 401.34 457.677 403.3 446.104 403.3H350.064V204.5H456.464C465.797 204.5 473.824 207.02 480.544 212.06C487.45 216.913 492.677 223.26 496.224 231.1C499.957 238.753 501.824 246.78 501.824 255.18C501.824 264.7 499.397 273.753 494.544 282.34C489.69 290.927 482.597 297.273 473.264 301.38C484.65 304.74 493.61 310.807 500.144 319.58C506.864 328.353 510.224 339.18 510.224 352.06ZM471.304 344.78C471.304 339.74 470.277 335.26 468.224 331.34C466.17 327.233 463.37 324.06 459.824 321.82C456.464 319.393 452.544 318.18 448.064 318.18H388.704V370.54H446.104C450.77 370.54 454.97 369.42 458.704 367.18C462.624 364.753 465.704 361.58 467.944 357.66C470.184 353.74 471.304 349.447 471.304 344.78ZM388.704 237.54V287.66H440.224C444.517 287.66 448.437 286.633 451.984 284.58C455.53 282.527 458.33 279.633 460.384 275.9C462.624 272.167 463.744 267.687 463.744 262.46C463.744 257.42 462.717 253.033 460.664 249.3C458.797 245.567 456.184 242.673 452.824 240.62C449.65 238.567 446.01 237.54 441.904 237.54H388.704Z" fill="#bd9e57"/>
<path d="M287.554 562.9V370.49H416.821V403.281H324.952V452.874H401.374V483.226H324.952V562.9H287.554Z" fill="#bd9e57"/>
<path d="M216.506 106.5L205.825 106.5L200.485 115.75L75.4849 332.256L70.1444 341.506L75.4849 350.756L200.485 567.263L205.825 576.513L216.506 576.513L466.506 576.513L477.187 576.513L482.528 567.263L607.528 350.756L612.868 341.506L607.528 332.256L482.528 115.75L477.187 106.5L466.506 106.5L216.506 106.5Z" stroke="#bd9e57" stroke-width="37"/>
</svg>
