<?xml version="1.0" encoding="UTF-8"?>
<!DOCTYPE svg PUBLIC "-//W3C//DTD SVG 1.1//EN" "http://www.w3.org/Graphics/SVG/1.1/DTD/svg11.dtd">
<!-- Creator: CorelDRAW 2020 (64-Bit) -->
<svg xmlns="http://www.w3.org/2000/svg" xml:space="preserve" width="150" height="90" version="1.1" style="shape-rendering:geometricPrecision; text-rendering:geometricPrecision; image-rendering:optimizeQuality; fill-rule:evenodd; clip-rule:evenodd"
viewBox="0 0 17264.7 7969.78"
 xmlns:xlink="http://www.w3.org/1999/xlink"
 xmlns:xodm="http://www.corel.com/coreldraw/odm/2003">
 <defs>
  <style type="text/css">
   <![CDATA[
    .fil2 {fill:#615D5A}
    .fil4 {fill:#625E5B}
    .fil5 {fill:#635F5C}
    .fil0 {fill:#81A177}
    .fil1 {fill:#84B0B3}
    .fil6 {fill:#ADABAA}
    .fil3 {fill:#DD8A46}
   ]]>
  </style>
 </defs>
 <g id="Capa_x0020_1">
  <metadata id="CorelCorpID_0Corel-Layer"/>
  <g id="_2750576492016">
   <path class="fil0" d="M-2.9 4772.97c408.85,64.02 1065.63,41.71 1501.16,52.14 645.49,15.46 2474.45,81.43 3012.74,-92.75 480.12,-155.36 433.49,-565.1 400.97,-1166.74 -641.22,-85.42 -3905.53,-177.31 -4611.32,-33.68 -153.79,31.3 -121.15,51.79 -151.76,219.34 -49.19,269.22 -162.97,791.46 -151.79,1021.69z"/>
   <path class="fil1" d="M1395.89 3029.3c446.31,200.77 2967.56,126.93 3606.81,73.35 77.72,-188.58 203.71,-353.39 240.51,-604.41 26.59,-181.31 61.84,-702.52 -75.48,-811.21 -143.09,-113.26 -2920.21,52.95 -3253.53,137.93 -276.16,70.4 -376.15,138.58 -449.75,391.74 -61.74,212.38 -102.54,590.12 -68.56,812.6z"/>
   <path class="fil2" d="M10762.82 3376.65l551.24 -4.08 12.29 -2170.74c68.85,37.8 690.1,929.77 783.68,1060.13 136.59,190.29 249.09,366.13 390.22,561.94 127.67,177.15 270.18,408.86 388.49,550.06l529.36 -2 8.81 -3095.81 -558.42 -1.17 -2.13 2174.97c-120.26,-97.55 -300.27,-392.29 -389.69,-519.32l-1158.95 -1655.82 -553.14 -2.46 -1.76 3104.3z"/>
   <path class="fil2" d="M9557.54 2110.08c-81.06,634.78 -501.35,1009.99 -1168.37,838.04 -574.92,-148.22 -693.88,-768.8 -622.91,-1416.69 137.56,-1255.82 2029.61,-1287.8 1791.28,578.65zm-1174.24 -1885.25c-933.75,61.74 -1321.19,937.41 -1201.74,1920.42 111.25,915.56 759.31,1424.59 1777.79,1274.39 923.24,-136.16 1287.43,-878.51 1186.03,-1910.39 -54.91,-558.79 -249.74,-745.1 -533.56,-1017.29 -288.43,-276.62 -742.54,-299.27 -1228.52,-267.13z"/>
   <path class="fil2" d="M14127.78 3371.1l2161.29 1.89 13.75 -463 -1604.6 2.44 -9.8 -856.58 1405.86 0.77 -7.79 -440.21c-294.73,-82.75 -1164.02,38.26 -1338.55,-87.07 -69.58,-102.61 -67.31,-625.38 -60.26,-796.09l1535.25 1.15 7.74 -462.27 -2101.69 1.38 -1.2 3097.59z"/>
   <path class="fil3" d="M2694.53 946.75l49.01 370.75c463.87,137.85 1844.38,11.46 2377.12,-10.94 46.99,-1554.8 104.5,-1285.88 -1646.14,-1285.88 -137.92,0 -288.82,-0.44 -425.83,9.03 -194.48,13.44 -224.42,8.4 -267.68,149.22 -32.54,105.93 -104.36,658.03 -86.48,767.82z"/>
   <path class="fil2" d="M13317.7 6015.77l270.27 8.54 2.5 -781.02c246.77,176.16 472.27,758.34 612.34,784.27l212.06 -0.09 -1.64 -1299.2 -268.98 -1.03 -8.15 778.34c-92.85,-55.44 -32.9,-7.03 -102.07,-89.76 -51.22,-61.27 -46.56,-70.21 -82.53,-128.96 -246.53,-402.56 -301.09,-562.19 -631.9,-557.86 -39.99,175.85 -36.6,1101.47 -1.9,1286.77z"/>
   <path class="fil2" d="M7552.9 5494.34c-33.47,-265.33 4.12,-480.95 216.73,-539.3 261.78,-71.86 385.9,75.66 418.81,305.55 90.6,632.73 -568.15,767.96 -635.54,233.75zm205.55 -781.65c-386.87,85.92 -581.26,337.84 -501.38,812.14 59.2,351.5 343.26,618.33 763.15,527.81 713.21,-153.74 604.67,-1532.38 -261.77,-1339.95z"/>
   <polygon class="fil2" points="8170.05,7916.74 8179.94,7703.99 7592.58,7680.26 7585.12,7390.84 8094.98,7384.47 8096.87,7149.43 7584.36,7134.75 7586.19,6877.54 8151.97,6850.37 8148.17,6636.73 7334.83,6625.53 7302.22,7916.23 "/>
   <path class="fil2" d="M8909.32 7710.96c-445.53,106.07 -351.39,-414.21 -247.61,-493.57 292.66,-223.82 360.15,254.64 247.61,493.57zm46.16 -692.12c-459.13,-82.08 -683.16,-24.28 -641.28,517.01 29.27,378.32 383.99,540.83 665.63,317.25l250.56 83.1 0.12 -1352.17 -270.89 14.78 -4.14 420.03z"/>
   <path class="fil2" d="M14279.18 7189.67c157.79,190.33 121.23,640.29 -163.58,545.7 -125.69,-41.75 -156.87,-211.86 -126.83,-368.57 32.87,-171.4 101.37,-195.78 290.41,-177.13zm365.74 419.83c198.49,-680.33 -738.82,-898.14 -918.73,-335.54 -228.43,714.32 732.69,973.22 918.73,335.54z"/>
   <path class="fil2" d="M14979.17 5276.04l214.72 8.75 52.2 146.26 -361.54 -21.53 94.62 -133.48zm480.88 570.83c-188.36,-121.08 -456.22,160.97 -566.1,-215.16 369.62,-1.31 781.1,100.65 562.76,-366.87 -103.45,-221.5 -437.72,-297.88 -678.22,-112.28 -209.13,161.41 -367.52,854.53 305.05,891.05 226.62,12.31 359.79,21.71 376.51,-196.74z"/>
   <path class="fil2" d="M9900.41 5609.64c0.48,8.34 0.76,16.41 0.86,24.23 0.1,7.82 0.01,15.39 -0.25,22.7 -0.26,7.31 -0.7,14.38 -1.31,21.2 -0.6,6.82 -1.38,13.4 -2.31,19.74 -0.93,6.34 -2.03,12.45 -3.27,18.32 -1.25,5.87 -2.64,11.5 -4.17,16.92 -1.53,5.42 -3.2,10.61 -5.01,15.58 -1.81,4.97 -3.75,9.72 -5.81,14.26 -2.06,4.54 -4.26,8.87 -6.56,12.99 -2.3,4.12 -4.73,8.04 -7.25,11.75 -2.52,3.72 -5.15,7.22 -7.88,10.54 -2.73,3.33 -5.57,6.44 -8.48,9.38 -2.91,2.94 -5.92,5.69 -9,8.26 -3.09,2.57 -6.25,4.95 -9.49,7.16 -3.23,2.21 -6.55,4.24 -9.92,6.11 -3.37,1.87 -6.8,3.56 -10.29,5.09 -3.48,1.54 -7.03,2.9 -10.62,4.11 -3.59,1.21 -7.22,2.27 -10.89,3.17 -3.67,0.91 -7.38,1.66 -11.11,2.27 -3.73,0.61 -7.5,1.06 -11.28,1.39 -3.78,0.33 -7.58,0.51 -11.39,0.57 -3.81,0.05 -7.63,-0.03 -11.45,-0.23 -3.82,-0.2 -7.64,-0.54 -11.46,-0.99 -3.82,-0.45 -7.63,-1.02 -11.42,-1.7 -3.79,-0.69 -7.58,-1.48 -11.33,-2.39 -3.76,-0.9 -7.49,-1.92 -11.18,-3.03 -3.7,-1.11 -7.36,-2.34 -10.98,-3.65 -3.62,-1.31 -7.19,-2.71 -10.72,-4.21 -3.53,-1.5 -7.01,-3.08 -10.43,-4.75 -3.41,-1.66 -6.77,-3.42 -10.06,-5.25 -3.29,-1.82 -6.52,-3.73 -9.66,-5.7 -3.14,-1.98 -6.21,-4.02 -9.19,-6.13 -2.98,-2.11 -5.88,-4.29 -8.68,-6.52 -2.8,-2.23 -5.51,-4.52 -8.11,-6.86 -2.6,-2.35 -5.11,-4.74 -7.5,-7.18 -2.39,-2.44 -4.66,-4.92 -6.82,-7.45 -2.16,-2.53 -4.19,-5.09 -6.1,-7.69 -1.91,-2.6 -3.68,-5.23 -5.32,-7.89 -1.64,-2.66 -3.14,-5.35 -4.49,-8.06 -1.35,-2.71 -2.56,-5.44 -3.61,-8.18 -1.05,-2.74 -1.95,-5.5 -2.68,-8.27 -0.73,-2.77 -1.3,-5.54 -1.69,-8.32 -0.39,-2.78 -0.62,-5.56 -0.66,-8.34 -0.04,-2.77 0.11,-5.55 0.44,-8.31 0.33,-2.77 0.86,-5.52 1.58,-8.26 0.73,-2.74 1.65,-5.46 2.78,-8.16 1.13,-2.7 2.46,-5.38 4.02,-8.03 1.56,-2.65 3.33,-5.27 5.33,-7.86 2,-2.59 4.21,-5.14 6.67,-7.65 2.45,-2.52 5.16,-4.99 8.09,-7.41 2.93,-2.42 6.11,-4.8 9.54,-7.12 3.43,-2.33 7.11,-4.6 11.05,-6.81 3.94,-2.21 8.14,-4.36 12.61,-6.45 4.47,-2.09 9.21,-4.11 14.23,-6.06 5.02,-1.95 10.31,-3.83 15.89,-5.63 5.59,-1.8 11.46,-3.52 17.62,-5.16 6.17,-1.64 12.63,-3.2 19.39,-4.66 6.76,-1.47 13.83,-2.83 21.21,-4.11 7.38,-1.28 15.07,-2.46 23.09,-3.54 8.02,-1.07 16.34,-2.06 25.01,-2.93 8.67,-0.87 17.66,-1.63 27,-2.27 9.33,-0.64 19.02,-1.17 29.04,-1.58 10.02,-0.41 20.39,-0.7 31.12,-0.86 10.73,-0.16 21.81,-0.19 33.26,-0.09zm-479.17 -285.31c210.87,-48.1 323.51,-129.77 468.45,29 -77.42,72.18 -757.9,59.73 -531.81,536.97 147.84,312.03 497.05,76.31 566.54,81.93 79.85,6.46 64.37,67.17 240.85,42.75 4.01,-225.85 42.31,-706.15 -71.12,-857.36 -77.4,-103.18 -237.9,-112.59 -409.34,-95.72 -269.19,26.5 -266.11,24.78 -263.57,262.43z"/>
   <path class="fil2" d="M11677.41 7611.94c74.16,-86.62 166.76,-100.38 324.48,-93.65 20.55,184.3 -68.05,239.15 -249.93,221.83l-74.55 -128.18zm549.14 326.99c5.47,-8.95 10.36,-21.18 13.1,-28.62l29.68 -88.42c4.37,-20.02 8.5,-68.2 10.13,-90.96 12.26,-170.81 15.27,-466.9 -60.88,-607.26 -124.31,-229.13 -499.73,-200.51 -702.22,-78.24l-1.25 182.71c189.36,-31.6 301.67,-88.6 471.77,-23.05 -37.99,137.72 54.4,84.71 -185.71,121.71 -86.73,13.37 -121.43,9.28 -197.28,49.49 -110.02,58.31 -184.48,157.05 -178.98,300.34 13.09,341.44 351.64,328.32 589.89,181.9l43.12 28.86c8.33,4.45 38.06,20.82 48.12,24.88 84.66,34.15 6.02,25.29 120.51,26.66z"/>
   <path class="fil2" d="M12226.45 5268.66c148.71,-3.26 152.3,53.49 180.77,165.7l-357.67 -5.05c30.29,-107.25 39.56,-157.65 176.9,-160.65zm354.19 733c43.24,-82.61 36.56,-122.3 21.89,-208.99 -290.48,49.28 -473.35,124.74 -546.33,-153.2l582.84 -18.17c171.32,-624.24 -636.86,-743.06 -821.05,-322.5 -239.54,546.94 216.35,868.44 762.65,702.86z"/>
   <path class="fil2" d="M10109.12 7838.93l93.79 65.76c90.73,39.65 0,24.66 117.95,27.74 71.32,-142.23 53.3,-742.57 18.81,-936.89l-244.51 -3.65c-61.77,327.54 140.29,795.41 -304.6,729.38 -149.45,-596.25 169.24,-771.53 -298.36,-728.03 -69.76,257.77 -189.9,1303.59 616.92,845.69z"/>
   <path class="fil2" d="M15430.61 7365.35c67.39,129.44 29.58,385.11 32.64,557.28l250.83 -18.31c23.82,-204.7 50.15,-594.82 -42.25,-775.09 -121.98,-237.98 -430.19,-182.57 -586.76,-45.39 -146.99,-78.74 -4.01,-122.93 -226.33,-84.64l-27.76 939.14 267.25 1.1c6.69,-315.7 -37.47,-504.87 86.21,-753.6 214.48,-24.12 238.64,-16.86 246.17,179.51z"/>
   <path class="fil2" d="M15604.68 6025.98l256.81 -1.16c52.98,-67.15 53.79,-77.51 97.2,-149.18l129.18 -149.18 153.56 297.7 293.77 3.49c-63.28,-151.44 -262.4,-371.09 -274.48,-473.43 -16.85,-142.77 200.05,-286.17 252.47,-461.77 -282.04,-31.64 -326.64,11.72 -387.97,242.81 -311.87,-170.14 12.92,-259.66 -498.82,-247.4 37.03,129.18 252.74,341.53 255.03,442.06 2.25,98.42 -221.2,341.05 -276.75,496.06z"/>
   <path class="fil2" d="M16755.45 5353.33c2.21,133.1 -8.04,447.36 36.87,552.05 56.59,131.95 280.14,182.38 441.78,117.75 34.71,-300.91 -27.96,-51.85 -190.76,-275.13l-9.33 -425.92c83.33,-32.37 335.38,-52.34 174.49,-207.49 -179.92,-173.49 -116.85,156.56 -185.55,-315.41 -332.76,-4.01 -102.14,103.43 -283.4,268.46 -109.77,99.93 -139.28,3.02 -140.28,141.6 -0.88,123.14 22.82,55.76 49.48,78.55l78.25 48.81c7.08,4.4 20.48,9.15 28.45,16.73z"/>
   <path class="fil2" d="M10868.94 7692.59c-194.75,-476.01 6.39,-471.52 399.94,-500.5l-2.39 -182.52c-978.96,-345.04 -1006.57,1255.78 24.41,900.34l1.05 -183.96c-172.16,-22.9 -225.5,14.64 -423.01,-33.36z"/>
   <path class="fil2" d="M11102.56 5799.18c-242.7,31.84 -472.62,58.97 -484.28,-234.05 -12.81,-322.06 208.49,-296.9 458.03,-268.45l-3.3 -203.5c-1027.25,-232.68 -913.84,1162.23 -96.02,948.56 153.33,-40.06 124.13,-70.2 125.57,-242.56z"/>
   <path class="fil2" d="M12835.86 7673.08c-90,-72.63 -46.85,-347.84 -24.8,-469.07l197.76 -25.23 3.41 -168.74 -188.64 -24.31c-65.89,-162.43 36.54,-56.52 -70.05,-275.79l-128.12 48.58c-113.78,217.31 6.59,100.36 -182.94,262.15 -181.51,154.94 -39.19,145.13 86.54,201.05 12.94,465.18 -88.27,757.51 471.22,733.18l28.41 -168.54c-122.15,-83.09 -94.76,6.54 -192.79,-113.28z"/>
   <path class="fil2" d="M11303.68 6025.74l276.59 -2.43 -0.23 -1339.62 -363.58 -2.65c-3.69,201.01 32.11,77.45 69.44,262.28l17.78 1082.42z"/>
   <path class="fil4" d="M8669.47 6020.1l279.9 9.44c11.24,-843.66 -20.89,-551.67 276.49,-746.72l3.16 -199.37c-180.03,1.07 -161.8,3.04 -297.01,81.29 -4.83,2.79 -14.76,9.74 -22.76,13.4 -102.24,-97.72 -79.34,-104.92 -231.64,-91.92l-8.14 933.88z"/>
   <path class="fil2" d="M13478.95 6994.78l-352.31 -0.35c-6.05,168.9 79.02,172.53 86.98,401.25 6.14,176.63 -6.58,346.98 3.96,533.34l272.28 -2.4 -10.91 -931.84z"/>
   <polygon class="fil5" points="13190.55,6813.05 13476.47,6813.92 13486.17,6612.44 13198.01,6603.52 "/>
   <path class="fil6" d="M15714.08 7904.32l-250.83 18.31c-3.06,-172.17 34.75,-427.84 -32.64,-557.28l30.32 576.75 153.5 6.39c166.53,-2.98 51.18,6.33 99.65,-44.17z"/>
  </g>
 </g>
</svg>
