<?xml version="1.0" standalone="no"?>
<!DOCTYPE svg PUBLIC "-//W3C//DTD SVG 20010904//EN"
 "http://www.w3.org/TR/2001/REC-SVG-20010904/DTD/svg10.dtd">
<svg version="1.0" xmlns="http://www.w3.org/2000/svg"
 width="250px" height="250px" viewBox="0 0 500.000000 499.000000"
 preserveAspectRatio="xMidYMid meet">

<g transform="translate(0.000000,499.000000) scale(0.100000,-0.100000)"
fill="#fafafa" stroke="none">
<path d="M2696 4353 c-2 -3 -49 -6 -103 -8 -90 -3 -199 -19 -298 -43 -165 -41
-401 -126 -475 -172 -8 -5 -36 -18 -61 -29 -26 -12 -60 -31 -75 -44 -16 -12
-58 -40 -94 -62 -71 -43 -162 -107 -190 -135 -10 -10 -60 -52 -112 -93 -51
-41 -110 -92 -130 -113 -21 -22 -44 -45 -50 -51 -125 -123 -158 -158 -158
-166 0 -5 -21 -30 -46 -56 -26 -25 -57 -62 -69 -81 -12 -19 -37 -48 -54 -65
-17 -16 -31 -34 -31 -40 0 -5 -16 -28 -35 -49 -31 -35 -84 -135 -176 -331 -51
-109 -74 -232 -73 -390 2 -124 5 -153 33 -255 18 -63 41 -130 52 -148 10 -18
19 -39 19 -46 0 -22 84 -177 138 -254 60 -87 155 -190 233 -254 98 -78 225
-128 369 -142 57 -6 225 7 320 24 30 6 86 15 123 20 119 18 296 78 550 189 81
35 97 28 111 -52 7 -39 29 -58 47 -40 7 7 5 29 -6 67 -17 57 -13 96 8 96 7 1
50 21 97 46 47 24 119 60 160 80 41 20 100 49 130 65 30 16 105 54 165 84 105
52 176 92 226 126 21 14 103 62 187 109 50 28 176 132 241 199 81 83 136 162
198 281 97 187 130 322 118 485 -10 131 -10 134 10 245 22 132 9 270 -27 270
-6 0 -5 -6 3 -17 12 -14 12 -15 0 -9 -11 7 -12 -1 -6 -45 13 -86 7 -182 -10
-195 -8 -6 -15 -19 -15 -29 0 -14 -3 -15 -15 -5 -12 10 -13 7 -5 -22 13 -43
13 -91 0 -83 -5 3 -10 0 -10 -7 0 -22 -61 -92 -125 -143 -33 -27 -71 -59 -85
-72 -14 -13 -33 -26 -42 -29 -10 -3 -18 -10 -18 -15 0 -5 -6 -9 -14 -9 -7 0
-48 -22 -90 -50 -42 -27 -80 -50 -84 -50 -8 0 -82 -32 -113 -49 -8 -5 -51 -23
-95 -41 -43 -17 -87 -36 -96 -41 -10 -5 -24 -9 -32 -9 -13 0 -114 -41 -148
-60 -9 -5 -44 -16 -79 -25 -35 -9 -76 -23 -91 -31 -15 -8 -28 -12 -28 -10 0 3
-12 1 -27 -5 -26 -10 -92 -29 -243 -69 -36 -9 -75 -20 -87 -24 -20 -6 -24 -2
-36 41 -8 26 -12 54 -10 63 7 23 113 109 162 131 24 10 55 19 70 18 14 0 43 2
64 6 33 7 37 5 37 -12 0 -12 6 -26 14 -32 17 -14 30 1 62 69 12 27 41 74 64
105 37 50 40 59 32 85 -6 16 -8 38 -5 50 5 18 2 21 -13 18 -13 -2 -24 -20 -35
-53 -35 -106 -101 -185 -155 -185 -17 0 -18 4 0 38 20 39 30 109 17 117 -6 3
-26 -5 -43 -19 -24 -18 -37 -40 -48 -83 -14 -49 -22 -61 -51 -75 -19 -9 -42
-17 -52 -18 -16 0 -16 3 -4 28 8 15 17 57 21 93 l6 66 -37 -2 c-20 0 -38 -5
-40 -10 -10 -31 -70 -117 -78 -114 -8 3 -13 190 -6 234 4 24 -9 817 -14 878
-4 37 -3 67 0 67 3 0 15 -21 27 -47 25 -59 104 -222 117 -243 5 -8 17 -32 26
-52 9 -21 20 -38 25 -38 6 0 10 -8 10 -19 0 -10 6 -24 14 -30 8 -7 22 -27 31
-46 9 -19 20 -35 25 -35 6 0 10 -9 10 -20 0 -11 3 -20 8 -20 4 0 18 -16 31
-35 13 -19 27 -35 32 -35 10 0 -66 124 -87 141 -8 6 -14 20 -14 29 0 10 -11
31 -24 47 -13 15 -23 30 -23 33 0 15 -16 50 -24 50 -5 0 -9 6 -9 12 0 10 -67
155 -110 238 -4 9 -13 43 -20 75 -7 33 -19 67 -25 75 -7 8 -13 41 -12 72 0 58
-24 115 -43 103 -13 -8 -13 -122 0 -130 12 -8 13 -57 2 -70 -5 -6 -5 -120 -1
-255 5 -135 10 -322 11 -417 3 -165 2 -173 -19 -192 -11 -11 -24 -38 -28 -60
-8 -47 10 -111 31 -111 9 0 14 -11 14 -29 0 -47 -9 -62 -36 -55 -19 5 -25 0
-37 -29 -8 -19 -29 -43 -46 -53 -17 -10 -31 -22 -31 -26 0 -13 -62 -78 -70
-73 -4 2 -5 16 -2 31 7 39 -20 26 -30 -14 -5 -17 -18 -36 -29 -42 -11 -6 -19
-19 -18 -28 3 -30 -1 -38 -28 -68 -27 -29 -76 -64 -89 -64 -11 0 3 65 22 107
18 39 58 94 108 151 27 29 31 31 51 18 20 -13 21 -12 17 23 -6 56 -54 83 -68
39 -8 -26 -55 -101 -67 -106 -7 -4 -15 -18 -74 -136 -14 -28 -27 -65 -30 -83
-7 -39 -18 -49 -38 -33 -10 9 -15 7 -19 -8 -4 -11 -15 -27 -25 -36 -18 -16
-20 -15 -50 22 -21 28 -31 51 -31 75 0 68 87 329 126 377 6 8 24 42 39 75 62
135 95 202 114 230 24 34 28 75 8 75 -8 0 -18 -10 -24 -22 -11 -26 -61 -134
-90 -193 -78 -163 -131 -235 -172 -235 -23 0 -31 31 -18 75 4 17 10 44 13 60
3 17 9 39 13 50 15 36 61 199 61 218 0 28 -18 20 -33 -15 -40 -93 -59 -154
-83 -267 l-26 -124 23 -19 c18 -13 34 -17 62 -12 44 7 45 2 13 -68 -44 -99
-48 -113 -53 -184 -5 -65 -4 -73 23 -111 41 -59 68 -72 97 -47 35 30 83 54
110 54 39 0 88 41 120 100 38 71 52 87 93 100 21 7 40 23 49 41 19 36 38 39
25 3 -6 -14 -10 -39 -10 -55 0 -24 7 -33 35 -46 l35 -17 35 34 34 33 5 -24
c13 -67 26 -159 26 -182 0 -29 4 -28 -120 -47 -41 -7 -88 -16 -105 -21 -16 -4
-82 -15 -145 -24 -63 -8 -135 -20 -160 -26 -49 -12 -67 -14 -180 -24 -41 -3
-121 -15 -178 -26 -57 -12 -106 -18 -110 -14 -3 3 2 18 11 33 10 15 25 41 33
57 8 17 21 39 27 50 11 18 54 93 140 247 15 28 26 53 23 56 -7 6 -46 -28 -46
-40 0 -5 -16 -31 -35 -59 -19 -28 -35 -57 -35 -64 0 -8 -11 -26 -24 -42 -13
-15 -40 -57 -60 -93 -65 -113 -71 -123 -99 -143 -26 -20 -27 -20 -62 -1 -25
13 -35 26 -36 44 0 14 -3 34 -5 45 -30 128 -10 246 62 378 37 66 44 83 44 105
0 12 5 22 11 22 6 0 19 10 29 23 10 12 22 19 26 15 26 -26 -26 -198 -107 -355
-50 -95 -57 -116 -49 -138 11 -30 30 -33 30 -5 0 11 -1 21 -2 23 -2 1 7 15 20
31 12 16 22 34 22 40 0 7 12 37 26 66 29 61 58 157 81 273 14 73 14 79 -2 97
-10 11 -21 20 -26 20 -12 0 -80 -100 -91 -134 -6 -17 -16 -38 -23 -46 -29 -36
-87 -199 -94 -263 -11 -105 20 -267 51 -267 5 0 8 -4 8 -10 0 -5 -5 -10 -11
-10 -6 0 -38 -11 -72 -23 -34 -13 -80 -29 -102 -37 -22 -7 -53 -18 -70 -25
-16 -7 -47 -16 -68 -20 -29 -5 -37 -10 -35 -23 3 -14 16 -17 76 -18 66 -1 113
-4 312 -20 244 -20 501 -61 524 -84 6 -6 18 -10 27 -10 25 0 302 -141 409
-208 l25 -16 -20 23 c-38 44 -140 108 -285 177 -41 20 -83 40 -93 45 -27 15
-264 69 -347 80 -135 18 -244 28 -320 28 -78 1 -120 8 -120 20 0 15 194 79
297 97 13 3 60 13 106 24 45 10 129 24 187 30 98 9 159 18 270 39 25 5 90 16
145 25 55 9 132 23 170 31 144 29 154 29 159 3 18 -83 23 -157 13 -203 -6 -27
-10 -116 -9 -197 2 -133 8 -195 28 -295 13 -66 -1 -69 -68 -11 -35 29 -68 60
-75 68 -6 9 -15 11 -20 6 -4 -5 -2 -11 5 -13 6 -3 12 -10 12 -17 0 -6 21 -31
46 -54 25 -24 44 -50 42 -59 -2 -9 -27 -24 -58 -35 -30 -10 -66 -23 -80 -27
-55 -19 -188 -71 -247 -95 -57 -24 -171 -49 -373 -81 -103 -17 -306 -19 -315
-5 -5 8 -11 8 -19 1 -7 -6 -17 -7 -22 -2 -5 5 -34 17 -64 26 -55 18 -82 34
-176 103 -81 59 -112 88 -151 139 -20 26 -39 50 -43 53 -15 11 -100 150 -138
225 -74 146 -132 360 -139 516 -6 112 -1 148 44 299 38 129 165 370 234 443
11 12 36 45 56 74 19 29 69 90 111 135 42 46 93 102 112 123 40 45 216 205
275 250 22 17 55 44 75 61 19 17 60 47 90 67 30 19 73 49 94 66 22 17 80 55
130 83 50 28 93 55 96 59 3 3 16 10 30 14 14 4 52 21 84 36 134 65 396 138
581 161 172 22 423 7 590 -36 6 -2 24 -6 40 -10 94 -22 121 -30 130 -36 12 -8
83 -30 106 -34 10 -1 24 -8 33 -15 9 -7 16 -11 16 -7 0 3 18 -5 40 -19 22 -14
45 -25 51 -25 7 0 43 -22 81 -50 38 -27 72 -50 76 -50 14 0 136 -122 170 -169
18 -24 32 -39 32 -33 0 6 -11 24 -25 40 -14 17 -25 34 -25 40 0 19 -85 105
-139 141 -102 68 -156 101 -168 101 -7 0 -13 4 -13 9 0 5 -26 19 -57 31 -32
13 -63 27 -69 32 -7 5 -16 8 -20 7 -5 -1 -22 3 -38 10 -32 13 -146 46 -211 62
-116 27 -407 64 -419 52z m1262 -1255 c-22 -20 -25 -63 -3 -54 9 3 15 0 15
-10 0 -8 -4 -13 -9 -9 -13 7 -17 -2 -25 -59 -5 -33 -4 -46 3 -41 47 29 -84
-309 -155 -400 -63 -80 -82 -103 -119 -141 -22 -23 -50 -52 -62 -65 -11 -13
-46 -42 -77 -64 -30 -22 -55 -43 -56 -47 0 -5 -4 -8 -10 -8 -5 0 -33 -15 -62
-33 -29 -18 -66 -39 -83 -47 -16 -8 -37 -20 -45 -26 -15 -12 -72 -44 -240
-132 -78 -41 -173 -91 -210 -111 -8 -4 -53 -26 -100 -48 -47 -22 -129 -61
-182 -87 -53 -26 -101 -45 -106 -42 -10 6 -15 28 -30 132 -4 28 -6 118 -5 200
2 82 4 210 6 286 1 75 5 139 9 143 4 4 33 13 65 21 129 29 469 136 563 177 19
8 78 31 130 50 52 20 124 48 160 65 36 16 81 35 100 42 19 7 54 26 77 41 22
15 50 30 61 33 11 4 27 15 37 26 10 11 23 20 30 20 7 0 24 11 39 25 15 14 39
31 54 39 29 16 169 150 189 182 10 16 13 17 22 4 9 -13 11 -12 11 6 0 41 15
35 20 -8 5 -33 2 -47 -12 -60z m5 -113 c4 -8 2 -17 -3 -20 -6 -4 -10 3 -10 14
0 25 6 27 13 6z m-1473 -121 c0 -14 -8 -38 -19 -52 -10 -15 -33 -55 -50 -89
-23 -46 -37 -63 -51 -63 -32 0 -25 43 18 113 72 119 102 146 102 91z m155 -30
c-9 -13 -20 -22 -25 -19 -17 10 -11 36 13 55 18 15 23 16 25 4 2 -8 -4 -26
-13 -40z m-336 -44 c1 -27 -7 -44 -34 -72 -38 -42 -65 -49 -65 -17 0 23 59
150 74 161 13 9 24 -23 25 -72z"/>
<path d="M3135 4052 c-54 -11 -32 -22 41 -22 69 0 99 -5 179 -30 6 -1 19 -6
30 -10 11 -5 35 -14 53 -21 19 -7 39 -17 45 -23 7 -6 32 -27 57 -46 75 -59
178 -171 227 -247 25 -40 50 -73 55 -73 5 0 13 -10 18 -22 8 -22 9 -22 9 5 1
15 -4 33 -9 40 -6 7 -28 39 -49 72 -48 73 -175 207 -216 228 -16 9 -41 26 -55
39 -28 27 -90 58 -114 58 -9 0 -16 4 -16 9 0 5 -19 12 -42 16 -24 3 -56 10
-73 15 -38 11 -114 17 -140 12z"/>
<path d="M3890 3791 c0 -5 5 -13 10 -16 6 -3 10 -2 10 4 0 5 -4 13 -10 16 -5
3 -10 2 -10 -4z"/>
<path d="M3940 3667 c0 -14 5 -29 10 -32 7 -4 8 3 4 22 -9 38 -14 42 -14 10z"/>
<path d="M3856 3507 c3 -10 9 -15 12 -12 3 3 0 11 -7 18 -10 9 -11 8 -5 -6z"/>
<path d="M3878 3464 c-3 -3 -1 -20 5 -37 5 -18 11 -38 13 -44 5 -19 32 -16 36
5 9 37 -34 97 -54 76z"/>
<path d="M3162 3365 c-21 -34 -31 -42 -40 -33 -17 17 -38 -6 -46 -51 -3 -21
-13 -44 -21 -51 -8 -7 -15 -20 -15 -29 0 -19 -50 -71 -68 -71 -7 0 -12 -7 -12
-15 0 -9 -18 -49 -41 -90 -29 -53 -37 -75 -26 -75 7 0 22 18 32 39 9 22 30 52
46 67 25 24 29 25 35 10 4 -10 -1 -43 -10 -74 -23 -74 -43 -158 -49 -205 -5
-29 -2 -40 10 -44 21 -8 31 12 38 77 3 30 12 82 20 115 8 33 17 72 20 88 6 29
26 35 44 13 7 -9 32 -14 63 -14 61 -1 67 -6 42 -33 -17 -19 -19 -19 -30 -4
-18 24 -34 9 -28 -23 4 -20 0 -33 -15 -46 -25 -23 -28 -56 -5 -56 11 0 14 -5
10 -16 -3 -9 -6 -20 -6 -25 0 -5 -9 -9 -21 -9 -18 0 -20 4 -15 25 9 34 -12 32
-25 -2 -14 -37 -5 -53 29 -53 40 0 68 34 86 104 9 33 25 69 36 81 11 12 20 27
20 33 0 7 11 12 25 12 14 0 28 0 32 1 4 0 13 -15 19 -35 10 -27 10 -42 1 -66
-13 -33 -2 -63 25 -68 18 -3 31 24 48 105 12 52 18 64 40 72 14 5 33 12 43 16
13 5 17 2 17 -13 0 -27 19 -38 35 -21 13 14 27 190 18 217 -7 18 -33 -5 -33
-29 0 -17 -57 -69 -76 -69 -5 0 -8 41 -8 92 2 106 1 105 108 114 69 6 88 17
57 33 -15 8 -38 9 -83 1 -35 -5 -82 -10 -105 -10 -32 0 -45 -5 -53 -19 -14
-28 -13 -41 5 -35 19 8 28 -31 29 -116 1 -85 -27 -130 -80 -130 -34 0 -35 0
-20 28 15 30 20 67 16 122 -2 31 -4 28 -19 -30 -18 -74 -46 -130 -64 -130 -6
0 -20 7 -30 14 -17 14 -17 15 1 28 64 45 104 216 67 287 -24 47 -42 46 -73 -4z
m42 -27 c13 -50 6 -124 -18 -173 -38 -80 -68 -105 -110 -89 -25 10 -19 32 35
139 84 166 82 164 93 123z m251 -269 c-4 -5 -16 -9 -28 -9 -20 0 -20 0 -2 14
21 15 40 12 30 -5z m-119 -106 c-11 -11 -17 4 -9 23 7 18 8 18 11 1 2 -10 1
-21 -2 -24z"/>
<path d="M2708 3334 c12 -22 40 -49 46 -43 2 2 -10 18 -26 34 -21 21 -27 24
-20 9z"/>
<path d="M1597 2818 c-12 -22 -15 -34 -7 -42 7 -7 10 -4 10 10 0 11 5 25 11
31 6 6 10 16 8 22 -2 6 -12 -4 -22 -21z"/>
</g>
</svg>
